<svg width="397" height="377" viewBox="0 0 397 377" fill="none" xmlns="http://www.w3.org/2000/svg">
<path d="M165.026 345.68C160.203 353.24 153.637 358.514 147.062 361.025C140.487 363.536 134.147 363.223 129.279 360.11C124.412 356.998 121.463 351.37 120.974 344.342C120.485 337.314 122.505 329.133 127.328 321.573C132.152 314.014 138.718 308.739 145.292 306.229C151.868 303.718 158.208 304.03 163.076 307.143C167.943 310.256 170.892 315.884 171.381 322.912C171.87 329.939 169.85 338.121 165.026 345.68Z" fill="white" stroke="black" stroke-width="7"/>
<path d="M231.974 345.68C236.797 353.24 243.363 358.514 249.938 361.025C256.513 363.536 262.853 363.223 267.721 360.11C272.588 356.998 275.537 351.37 276.026 344.342C276.515 337.314 274.495 329.133 269.672 321.573C264.848 314.014 258.282 308.739 251.708 306.229C245.132 303.718 238.792 304.03 233.924 307.143C229.057 310.256 226.108 315.884 225.619 322.912C225.13 329.939 227.15 338.121 231.974 345.68Z" fill="white" stroke="black" stroke-width="7"/>
<path d="M237.106 67.4447C237.106 85.3773 231.601 101.564 223.864 113.197C216 125.02 206.395 131.389 198.5 131.389C190.605 131.389 181 125.02 173.136 113.197C165.399 101.564 159.894 85.3773 159.894 67.4447C159.894 49.5122 165.399 33.325 173.136 21.6925C181 9.86947 190.605 3.5 198.5 3.5C206.395 3.5 216 9.86947 223.864 21.6925C231.601 33.325 237.106 49.5122 237.106 67.4447Z" fill="white" stroke="black" stroke-width="7"/>
<path d="M337.897 151.33C356.215 162.879 370.096 184.331 375.166 220.314C377.057 218.966 379.449 216.855 381.875 213.639C387.487 206.198 393.5 192.534 393.5 168.01C393.5 119.741 354.15 80.5796 305.57 80.5796C259.262 80.5796 221.342 116.162 217.895 161.296C219.213 160.618 220.651 159.9 222.196 159.155C234.427 153.257 253.839 145.435 274.85 141.974C295.812 138.521 318.866 139.332 337.897 151.33Z" fill="white" stroke="black" stroke-width="7"/>
<path d="M59.1026 151.33C40.7851 162.879 26.904 184.331 21.8337 220.314C19.9428 218.966 17.5509 216.855 15.1254 213.639C9.51343 206.198 3.5 192.534 3.5 168.01C3.5 119.741 42.8496 80.5796 91.4303 80.5796C137.738 80.5796 175.658 116.162 179.105 161.296C177.787 160.618 176.349 159.9 174.804 159.155C162.573 153.257 143.161 145.435 122.15 141.974C101.188 138.521 78.1338 139.332 59.1026 151.33Z" fill="white" stroke="black" stroke-width="7"/>
<path d="M300.949 217.235C282.134 299.617 243.74 340.877 198.5 364.594C153.26 340.877 114.866 299.618 96.0508 217.235C87.1168 175.479 89.229 138.911 105.022 112.92C120.668 87.1705 150.294 70.9442 198.5 70.9448C246.706 70.9454 276.332 87.1721 291.978 112.922C307.771 138.912 309.883 175.48 300.949 217.235Z" fill="white" stroke="black" stroke-width="7"/>
<path d="M178.104 290.034C175.425 294.238 171.805 297.125 168.254 298.482C164.701 299.841 161.449 299.613 159.033 298.067C156.617 296.52 155.044 293.657 154.78 289.855C154.516 286.054 155.607 281.549 158.286 277.345C160.965 273.14 164.585 270.254 168.136 268.896C171.689 267.538 174.941 267.765 177.357 269.312C179.773 270.859 181.346 273.721 181.61 277.523C181.874 281.324 180.783 285.829 178.104 290.034Z" fill="white" stroke="black" stroke-width="6.63793"/>
<path d="M219.275 290.034C221.954 294.238 225.574 297.125 229.125 298.482C232.678 299.841 235.93 299.613 238.346 298.067C240.762 296.52 242.335 293.657 242.599 289.855C242.864 286.054 241.772 281.549 239.093 277.345C236.414 273.14 232.795 270.254 229.243 268.896C225.691 267.538 222.438 267.765 220.022 269.312C217.606 270.859 216.033 273.721 215.769 277.523C215.505 281.324 216.596 285.829 219.275 290.034Z" fill="white" stroke="black" stroke-width="6.63793"/>
<path d="M219.911 128.358C219.911 138.571 216.777 147.772 212.406 154.351C207.915 161.112 202.653 164.396 198.689 164.396C194.726 164.396 189.464 161.112 184.973 154.351C180.602 147.772 177.468 138.571 177.468 128.358C177.468 118.144 180.602 108.944 184.973 102.364C189.464 95.6032 194.726 92.319 198.689 92.319C202.653 92.319 207.915 95.6032 212.406 102.364C216.777 108.944 219.911 118.144 219.911 128.358Z" fill="white" stroke="black" stroke-width="6.63793"/>
<path d="M280.617 176.23C291.303 182.976 299.335 195.218 302.578 215.132C303.202 214.532 303.867 213.797 304.541 212.903C307.611 208.828 311.06 201.142 311.06 187.042C311.06 159.583 288.702 137.299 261.092 137.299C235.558 137.299 214.515 156.358 211.495 180.944C211.643 180.872 211.792 180.799 211.943 180.726C219.135 177.254 230.57 172.637 242.979 170.59C255.342 168.551 269.147 168.99 280.617 176.23Z" fill="white" stroke="black" stroke-width="6.63793"/>
<path d="M116.762 176.23C106.076 182.976 98.0439 195.218 94.8006 215.132C94.1774 214.532 93.5117 213.797 92.8378 212.903C89.7686 208.828 86.319 201.142 86.319 187.042C86.319 159.583 108.677 137.299 136.287 137.299C161.821 137.299 182.864 156.358 185.884 180.944C185.736 180.872 185.587 180.799 185.436 180.726C178.244 177.254 166.809 172.637 154.4 170.59C142.037 168.551 128.232 168.99 116.762 176.23Z" fill="white" stroke="black" stroke-width="6.63793"/>
<path d="M252.076 155.557C261.036 170.321 262.325 191.272 257.15 215.494C246.344 262.859 224.444 286.613 198.69 300.316C172.935 286.613 151.035 262.859 140.229 215.494C135.055 191.271 136.343 170.32 145.303 155.557C154.123 141.022 170.895 131.677 198.69 131.677C226.484 131.677 243.256 141.023 252.076 155.557Z" fill="white" stroke="black" stroke-width="6.63793"/>
<path d="M189.839 237.968C188.713 239.74 187.199 240.945 185.732 241.507C184.265 242.069 182.968 241.96 182.028 241.356C181.088 240.752 180.444 239.616 180.335 238.041C180.226 236.467 180.677 234.58 181.803 232.808C182.928 231.036 184.442 229.831 185.909 229.269C187.376 228.706 188.673 228.816 189.613 229.42C190.553 230.023 191.197 231.16 191.306 232.735C191.415 234.309 190.965 236.196 189.839 237.968Z" fill="white" stroke="black" stroke-width="3.5"/>
<path d="M208.161 237.968C209.287 239.74 210.801 240.945 212.268 241.507C213.735 242.069 215.032 241.96 215.972 241.356C216.912 240.752 217.556 239.616 217.665 238.041C217.774 236.467 217.323 234.58 216.197 232.808C215.072 231.036 213.558 229.831 212.091 229.269C210.624 228.706 209.327 228.816 208.387 229.42C207.447 230.023 206.803 231.16 206.694 232.735C206.585 234.309 207.035 236.196 208.161 237.968Z" fill="white" stroke="black" stroke-width="3.5"/>
<path d="M207.856 168.06C207.856 172.426 206.519 176.355 204.664 179.156C202.745 182.054 200.554 183.369 199 183.369C197.446 183.369 195.255 182.054 193.336 179.156C191.481 176.355 190.144 172.426 190.144 168.06C190.144 163.693 191.481 159.764 193.336 156.963C195.255 154.065 197.446 152.75 199 152.75C200.554 152.75 202.745 154.065 204.664 156.963C206.519 159.764 207.856 163.693 207.856 168.06Z" fill="white" stroke="black" stroke-width="3.5"/>
<path d="M234.579 188.548C239.181 191.461 242.63 196.672 244.106 205C244.233 204.854 244.364 204.695 244.495 204.52C245.772 202.819 247.25 199.557 247.25 193.496C247.25 181.763 237.725 172.247 225.97 172.247C215.297 172.247 206.462 180.091 204.926 190.318C208.064 188.826 212.876 186.92 218.089 186.058C223.469 185.168 229.528 185.35 234.579 188.548Z" fill="white" stroke="black" stroke-width="3.5"/>
<path d="M163.421 188.548C158.819 191.461 155.37 196.672 153.894 205C153.767 204.854 153.636 204.695 153.505 204.52C152.228 202.819 150.75 199.557 150.75 193.496C150.75 181.763 160.275 172.247 172.03 172.247C182.703 172.247 191.538 180.091 193.074 190.318C189.936 188.826 185.124 186.92 179.911 186.058C174.531 185.168 168.472 185.35 163.421 188.548Z" fill="white" stroke="black" stroke-width="3.5"/>
<path d="M223.958 205.762C219.327 226.118 209.979 236.334 199 242.24C188.02 236.334 178.673 226.118 174.042 205.762C171.814 195.298 172.384 186.31 176.198 180.008C179.937 173.829 187.063 169.809 199 169.81C210.936 169.81 218.063 173.829 221.802 180.009C225.615 186.31 226.186 195.298 223.958 205.762Z" fill="white" stroke="black" stroke-width="3.5"/>
</svg>
